<svg xmlns="http://www.w3.org/2000/svg" viewBox="0 0 96 96" role="img" aria-label="Curly braces around key and value rows">
<style>.o{stroke:#1c1c1c;stroke-width:2;stroke-linejoin:round;stroke-linecap:round}.n{fill:none}.a{fill:#fbfbfb}.b{fill:#dedede}.c{fill:#b5b5b5}.d{fill:#7d7d7d}.t{stroke:#1c1c1c;stroke-width:2;stroke-linecap:round;fill:none}.so{stroke:#1c1c1c}.sb{stroke:#dedede}.sa{stroke:#fbfbfb}@media (prefers-color-scheme:dark){.o,.t,.so{stroke:#fff}.a{fill:#848484}.b{fill:#4a4a4a}.c{fill:#242424}.d{fill:#000}.sb{stroke:#4a4a4a}.sa{stroke:#848484}}</style>

<path class="o n" style="stroke-width:4.4" d="M35 15c-10 0-12 4-12 14v8c0 6-4 10-8 10 4 0 8 4 8 10v8c0 10 2 14 12 14"/><path class="o n" style="stroke-width:4.4" d="M61 15c10 0 12 4 12 14v8c0 6 4 10 8 10-4 0-8 4-8 10v8c0 10-2 14-12 14"/>
<g class="o d"><circle cx="37" cy="33" r="2.6"/><circle cx="37" cy="47" r="2.6"/><circle cx="37" cy="61" r="2.6"/></g>
<path class="o n" style="stroke-width:3" d="M45 33h14M45 47h8M45 61h12"/>
</svg>
